<svg xmlns="http://www.w3.org/2000/svg" width="567.536" height="208.833" viewBox="0 0 567.536 208.833">
    <g transform="translate(-516.702 -491.228)">
        <g id="noun-key-116139" transform="translate(524.241 315.647)">
            <path d="M246.71,175.59c-48.906-.656-93.375,32.844-104.25,82.027-12.43,56.211,23.582,112.03,80.262,124.36s112.99-23.348,125.42-79.555v0a8.372,8.372,0,0,0-.82-6.676,8.533,8.533,0,0,0-15.762,2.973c-10.461,47.293-57.625,77.227-105.31,66.855s-77.668-56.961-67.207-104.25,57.449-77.051,105.13-66.68a87.872,87.872,0,0,1,61.035,48.688h0a8.533,8.533,0,0,0,7.582,4.938c.238.012.473.012.707,0h197.21l11.113,19.4-12.348,21.52c-2.7,4.68-1.594,10.355,2.469,12.7s9.473.449,12.172-4.234l14.465-24.871a7.893,7.893,0,0,0,1.234-3.7,9.344,9.344,0,0,0,.176-1.059c0-.211.012-.488,0-.707a9.886,9.886,0,0,0-.176-1.234,8.592,8.592,0,0,0-1.234-3.527v-.176a8.317,8.317,0,0,0-1.059-1.41L544.117,237.68a11.125,11.125,0,0,0-3.352-3.527,9.98,9.98,0,0,0-2.644-1.234,8.006,8.006,0,0,0-1.234-.352,23.924,23.924,0,0,0-7.41-1.234l-190.69-.352c-.219,0-.328,0-.527,0a108.322,108.322,0,0,0-91.551-55.387Z"/>
            <path d="M228.59,247.93a31.05,31.05,0,1,0,11.45,50.785c11.121-11.418,11.1-29.227,1.137-41.246l0,0a8.422,8.422,0,0,0-1.7-2.664c-.039-.078-.078-.156-.121-.234-.156-.121-.316-.234-.477-.344-.047-.043-.133-.012-.176-.055h0c-.039-.078-.078-.156-.121-.234a8.673,8.673,0,0,0-1.664-.9c-.1-.078-.258-.035-.355-.109-.211-.145-.43-.273-.652-.4-2.367-1.746-4.648-3.617-7.32-4.605Zm-11.2,14.8a14.393,14.393,0,0,1,9.887,3.844c.051.055.129,0,.176.055v0c.043.078.082.152.125.23a13.759,13.759,0,1,1-10.187-4.137Z"/>
        </g>
        <g id="noun-wifi-1069776" transform="translate(419.622 764.194) rotate(-90)">
            <path d="M238.014,125.851a98.245,98.245,0,0,0-138.93,0,4.723,4.723,0,1,0,6.675,6.676,88.8,88.8,0,0,1,125.581,0,4.724,4.724,0,1,0,6.675-6.676Z" transform="translate(0)"/>
            <path d="M213.034,184.8a73.151,73.151,0,0,0-52.067,21.57,4.723,4.723,0,1,0,6.675,6.676,64.19,64.19,0,0,1,90.768,0,4.724,4.724,0,1,0,6.676-6.676,73.156,73.156,0,0,0-52.052-21.57Z" transform="translate(-44.485 -63.056)"/>
            <path d="M257.841,272.159A48.7,48.7,0,0,0,223.2,286.518a4.737,4.737,0,1,0,6.66,6.739,39.583,39.583,0,0,1,55.972,0,4.732,4.732,0,1,0,6.644-6.739,48.7,48.7,0,0,0-34.638-14.359Z" transform="translate(-89.291 -125.855)"/>
            <path d="M302.208,359.689a24.251,24.251,0,0,0-17.32,7.149,4.725,4.725,0,0,0,0,6.66L298.7,387.306h0a4.722,4.722,0,0,0,6.644,0L319.448,373.5a4.724,4.724,0,0,0,0-6.707,24.247,24.247,0,0,0-17.24-7.1Z" transform="translate(-133.659 -188.775)"/>
        </g>
    </g>
</svg>
